PathFileType	4	(X/Y/Z)	Kaydara	
DataRate	CameraRate	NumFrames	NumMarkers	Units	OrigDataRate	OrigDataStartFrame	OrigNumFrames	
120.00	120.00	8	30	mm	120.00	1	2847	
Frame#	Time	reference			Pelvis			Left_hip			Left_knee			Left_ankle			Left_foot			Left_foot_End			Right_hip			Right_knee			Right_ankle			Right_foot			Right_foot_End			Spine1			Spine2			Spine3			Neck			Head			Head_End			Left_collar			Left_shoulder			Left_elbow			Left_wrist			Left_palm			Left_palm_End			Right_collar			Right_shoulder			Right_elbow			Right_wrist			Right_palm			Right_palm_End			
		X1	Y1	Z1	X2	Y2	Z2	X3	Y3	Z3	X4	Y4	Z4	X5	Y5	Z5	X6	Y6	Z6	X7	Y7	Z7	X8	Y8	Z8	X9	Y9	Z9	X10	Y10	Z10	X11	Y11	Z11	X12	Y12	Z12	X13	Y13	Z13	X14	Y14	Z14	X15	Y15	Z15	X16	Y16	Z16	X17	Y17	Z17	X18	Y18	Z18	X19	Y19	Z19	X20	Y20	Z20	X21	Y21	Z21	X22	Y22	Z22	X23	Y23	Z23	X24	Y24	Z24	X25	Y25	Z25	X26	Y26	Z26	X27	Y27	Z27	X28	Y28	Z28	X29	Y29	Z29	X30	Y30	Z30	

1	0.000	0.00000	0.00000	0.00000	996.91002	972.88002	-691.06003	940.77516	890.25250	-714.19810	945.52264	506.95797	-780.33182	852.98889	142.48097	-574.33411	899.16673	56.73912	-677.92005	899.16673	56.73912	-677.92005	1031.83036	883.87831	-637.46355	1095.91253	504.13297	-665.71302	1056.51702	104.45545	-536.47627	1159.84958	37.92601	-619.85019	1159.84958	37.92601	-619.85019	995.86117	1097.07333	-699.63864	993.62927	1234.71294	-710.24391	1000.20449	1289.84329	-718.62963	1017.52253	1499.98772	-744.89514	1018.69597	1598.62123	-773.58890	1018.69597	1598.62123	-773.58890	947.07528	1397.73830	-782.11462	850.07248	1415.33390	-870.41340	861.21403	1169.73210	-944.72008	1002.56331	971.08903	-1051.38877	1047.22999	895.53232	-1064.33569	1047.22999	895.53232	-1064.33569	1049.34736	1412.33276	-666.91294	1124.05428	1460.85037	-582.34046	1153.46604	1204.09380	-536.93921	1082.67701	1214.67997	-796.51279	1042.72861	1196.12548	-874.70537	1042.72861	1196.12548	-874.70537 
2	0.008	0.00000	0.00000	0.00000	996.79001	972.89001	-690.45998	940.69993	890.25913	-713.69442	945.70347	507.02710	-780.17055	853.13036	142.39811	-574.45971	899.34318	56.67783	-678.04790	899.34318	56.67783	-678.04790	1031.70327	883.86346	-636.90017	1095.88963	504.13308	-665.11410	1056.69771	104.35599	-536.12360	1158.78724	36.28878	-619.78708	1158.78724	36.28878	-619.78708	995.70441	1097.08883	-698.95388	993.44603	1234.73405	-709.48043	1000.02491	1289.86787	-717.84046	1017.39730	1500.01423	-744.05462	1018.60862	1598.65276	-772.72953	1018.60862	1598.65276	-772.72953	946.96138	1397.78316	-781.34590	849.99416	1415.41545	-869.67644	861.16320	1169.89641	-944.25202	1002.51928	971.29819	-1050.99519	1047.26226	895.79282	-1063.97808	1047.26226	895.79282	-1063.97808	1049.14885	1412.33984	-666.06438	1123.81093	1460.82691	-581.43481	1153.46240	1204.10757	-535.97902	1082.89799	1214.49801	-795.62166	1043.00728	1195.83528	-873.81792	1043.00728	1195.83528	-873.81792 
3	0.017	0.00000	0.00000	0.00000	996.58997	972.97997	-689.86000	940.53425	890.35267	-713.18991	945.74866	507.18811	-780.03781	853.16166	142.39277	-574.62838	899.37473	56.69950	-678.23880	899.37473	56.69950	-678.23880	1031.48492	883.92471	-636.33598	1095.70435	504.19733	-664.51496	1056.61757	104.31946	-535.80526	1158.28374	35.75616	-619.57912	1158.28374	35.75616	-619.57912	995.48330	1097.18428	-698.27049	993.20800	1234.83511	-708.71967	999.79122	1289.97269	-717.05144	1017.20818	1500.12440	-743.19295	1018.45252	1598.77095	-771.83889	1018.45252	1598.77095	-771.83889	946.78758	1397.91241	-780.56537	849.87405	1415.58477	-868.94682	861.05456	1170.11296	-943.67598	1002.43724	971.55281	-1050.45476	1047.20311	896.06436	-1063.45710	1047.20311	896.06436	-1063.45710	1048.89156	1412.42402	-665.20422	1123.51438	1460.87352	-580.51853	1153.39388	1204.18475	-535.03939	1083.15496	1214.33846	-794.77963	1043.33374	1195.54061	-872.97895	1043.33374	1195.54061	-872.97895 
4	0.025	0.00000	0.00000	0.00000	996.38000	973.09998	-689.20998	940.36345	890.47124	-712.62867	945.77086	507.37096	-779.82870	853.24032	142.38274	-574.73669	899.44970	56.71812	-678.37244	899.44970	56.71812	-678.37244	1031.26184	884.02233	-635.71467	1095.66408	504.34548	-664.15618	1056.72434	104.36044	-535.73525	1158.31429	35.68263	-619.50778	1158.31429	35.68263	-619.50778	995.24505	1097.30898	-697.54700	992.94457	1234.96455	-707.92816	999.52819	1290.10587	-716.23480	1016.97236	1500.26316	-742.31329	1018.24151	1598.91649	-770.93474	1018.24151	1598.91649	-770.93474	946.57539	1398.06278	-779.76191	849.72258	1415.75945	-868.20504	860.93349	1170.32053	-943.03762	1002.39869	971.82212	-1049.82187	1047.18188	896.34518	-1062.83142	1047.18188	896.34518	-1062.83142	1048.59502	1412.54294	-664.32222	1123.15392	1460.96935	-579.56703	1153.25961	1204.32057	-534.01145	1083.34512	1214.16520	-793.85110	1043.57789	1195.18148	-872.03299	1043.57789	1195.18148	-872.03299 
5	0.033	0.00000	0.00000	0.00000	996.16997	973.22998	-688.59001	940.17844	890.60894	-712.09557	945.74881	507.57803	-779.67662	853.24856	142.39003	-574.92687	899.45627	56.75083	-678.58438	899.45627	56.75083	-678.58438	1031.02344	884.12519	-635.12144	1095.69538	504.52396	-663.95759	1056.90174	104.42221	-535.85640	1158.38571	35.61938	-619.65479	1158.38571	35.61938	-619.65479	995.02800	1097.44364	-696.85641	992.72626	1235.10406	-707.17269	999.31773	1290.24776	-715.45732	1016.80973	1500.40650	-741.49201	1018.11321	1599.06390	-770.09791	1018.11321	1599.06390	-770.09791	946.42584	1398.22138	-779.00679	849.62904	1415.94543	-867.50571	860.84879	1170.52618	-942.40142	1002.35189	972.04498	-1049.16745	1047.13770	896.56955	-1062.17673	1047.13770	896.56955	-1062.17673	1048.36379	1412.67038	-663.49105	1122.85751	1461.07458	-578.66591	1153.18585	1204.46201	-533.05409	1083.75794	1214.09326	-793.03217	1044.01839	1194.88181	-871.17249	1044.01839	1194.88181	-871.17249 
6	0.042	0.00000	0.00000	0.00000	995.87997	973.33000	-687.94998	939.91091	890.71674	-711.53625	945.68245	507.74555	-779.43809	853.23988	142.37644	-574.98561	899.41385	56.77833	-678.69208	899.41385	56.77833	-678.69208	1030.71598	884.19637	-634.51812	1095.44037	504.60631	-663.38361	1056.76588	104.38493	-535.62056	1158.15115	35.46809	-619.44473	1158.15115	35.46809	-619.44473	994.72730	1097.54862	-696.14014	992.41753	1235.21442	-706.38255	999.01146	1290.36172	-714.64115	1016.52403	1500.52701	-740.60910	1017.84604	1599.19216	-769.18741	1017.84604	1599.19216	-769.18741	946.15734	1398.35429	-778.18985	849.39667	1416.10920	-866.72210	860.62724	1170.71118	-941.68574	1002.16772	972.25980	-1048.45765	1046.96137	896.79040	-1061.47494	1046.96137	896.79040	-1061.47494	1048.03312	1412.76867	-662.61496	1122.47943	1461.14783	-577.73393	1153.00079	1204.57211	-532.04359	1083.94637	1214.00615	-792.12836	1044.24500	1194.55006	-870.22755	1044.24500	1194.55006	-870.22755 
7	0.050	0.00000	0.00000	0.00000	995.70000	973.44002	-687.30003	939.74435	890.84146	-710.96946	945.65499	507.92874	-779.18838	853.27281	142.36908	-575.04946	899.38692	56.82676	-678.82858	899.38692	56.82676	-678.82858	1030.50875	884.27214	-633.90756	1095.22747	504.67692	-662.71787	1056.62721	104.32980	-535.32684	1157.92075	35.32263	-619.18758	1157.92075	35.32263	-619.18758	994.55026	1097.66391	-695.41026	992.24884	1235.33549	-705.57644	998.85213	1290.48545	-713.80983	1016.41374	1500.65376	-739.72016	1017.76687	1599.32533	-768.27482	1017.76687	1599.32533	-768.27482	946.04802	1398.50192	-777.35948	849.31498	1416.29356	-865.91454	860.51026	1170.90867	-940.92640	1002.04212	972.45484	-1047.70520	1046.82766	896.98200	-1060.73039	1046.82766	896.98200	-1060.73039	1047.86916	1412.87182	-661.73091	1122.29117	1461.21959	-576.81068	1153.01654	1204.68545	-531.02367	1084.30973	1213.89465	-791.20853	1044.66280	1194.25513	-869.28946	1044.66280	1194.25513	-869.28946 
8	0.058	0.00000	0.00000	0.00000	995.45998	973.51997	-686.57997	939.52700	890.93215	-710.34027	945.62578	508.09351	-778.95724	853.26099	142.49952	-574.87195	899.38290	56.95897	-678.64906	899.38290	56.95897	-678.64906	1030.23768	884.32131	-633.21869	1095.80655	504.99846	-663.64860	1057.47278	104.52821	-536.56450	1158.72725	35.46831	-620.42903	1158.72725	35.46831	-620.42903	994.30689	1097.74881	-694.61348	992.00717	1235.42570	-704.70811	998.61495	1290.57815	-712.92110	1016.20022	1500.74761	-738.80609	1017.56923	1599.42182	-767.35086	1017.56923	1599.42182	-767.35086	945.83760	1398.60480	-776.47569	849.15446	1416.44855	-865.07475	860.32582	1171.08627	-940.16412	1001.86544	972.63652	-1046.94022	1046.64177	897.15922	-1059.97117	1046.64177	897.15922	-1059.97117	1047.62624	1412.95575	-660.81616	1122.00526	1461.25663	-575.83161	1152.93818	1204.76566	-529.94267	1084.67459	1213.78479	-790.25083	1045.11869	1193.98947	-868.33859	1045.11869	1193.98947	-868.33859 
